<?xml version="1.0" encoding="utf-8"?>
<!-- Generator: Adobe Illustrator 15.1.0, SVG Export Plug-In . SVG Version: 6.00 Build 0)  -->
<!DOCTYPE svg PUBLIC "-//W3C//DTD SVG 1.1//EN" "http://www.w3.org/Graphics/SVG/1.1/DTD/svg11.dtd" [
	<!ENTITY ns_flows "http://ns.adobe.com/Flows/1.0/">
	<!ENTITY ns_extend "http://ns.adobe.com/Extensibility/1.0/">
	<!ENTITY ns_ai "http://ns.adobe.com/AdobeIllustrator/10.0/">
	<!ENTITY ns_graphs "http://ns.adobe.com/Graphs/1.0/">
]>
<svg version="1.1" id="Camada_1" xmlns:x="&ns_extend;" xmlns:i="&ns_ai;" xmlns:graph="&ns_graphs;"
	 xmlns="http://www.w3.org/2000/svg" xmlns:xlink="http://www.w3.org/1999/xlink" xmlns:a="http://ns.adobe.com/AdobeSVGViewerExtensions/3.0/"
	 x="0px" y="0px" width="370.066px" height="233.373px" viewBox="0 0 370.066 233.373" enable-background="new 0 0 370.066 233.373"
	 xml:space="preserve">
<path fill="#00552C" d="M370.066,212.839c-2.979-3.823-6.213-7.035-8.807-9.491c-0.5-0.471-1.055-0.712-1.588-0.757
	c-0.271-0.702-0.676-1.337-1.188-1.786c-7.708-6.758-15.129-9.615-21.373-11.516c-0.367-0.109-0.72-0.094-1.049-0.01
	c-0.328-0.271-0.674-0.498-1.044-0.598c-1.553-0.422-3.136-0.842-4.732-1.23c-2.019-0.525-4.063-1.127-6.124-1.762
	c-0.211-0.066-0.412-0.075-0.617-0.07c-3.535,0.042-6.959-0.019-10.217-0.277l-0.952,0.018c-0.007-0.002-0.013-0.004-0.019-0.006
	c-0.297-0.1-0.651-0.059-0.916,0.061c-0.301-0.174-0.659-0.397-0.982-0.433c-4.793-0.522-9.463-1.399-13.882-2.605
	c-0.212-0.058-0.415-0.071-0.617-0.063c-0.21-0.132-0.431-0.237-0.654-0.301l-0.776-0.224c-0.524-0.15-1.043-0.297-1.562-0.462
	c-4.154-1.345-8.465-3.269-13.162-5.867c-0.248-0.138-0.498-0.215-0.747-0.256c-0.167-0.152-0.325-0.325-0.511-0.432
	c-4.736-2.72-9.634-5.998-14.967-10.025c-0.215-0.162-0.434-0.28-0.66-0.372c-0.184-0.223-0.377-0.43-0.593-0.595
	c-6.38-4.919-12.913-10.812-20.56-18.546c-0.33-0.335-0.695-0.554-1.061-0.698c-0.215-0.441-0.467-0.859-0.799-1.201
	c-4.79-4.918-9.418-9.939-14.894-15.967c-0.307-0.333-0.645-0.57-0.99-0.738c-0.199-0.425-0.434-0.83-0.737-1.164l-1.413-1.561
	c-4.483-4.953-9.121-10.073-13.75-15.001c-1.239-1.325-2.519-2.633-3.792-3.937l-0.42-0.431c-0.28-0.285-0.58-0.477-0.884-0.627
	c-0.205-0.381-0.438-0.738-0.723-1.028c-6.779-6.884-13.821-13.439-20.939-19.486c-0.358-0.305-0.74-0.479-1.119-0.572
	c-0.254-0.434-0.55-0.834-0.909-1.133c-7.335-6.115-14.574-11.58-21.517-16.242c-0.312-0.21-0.636-0.331-0.954-0.389
	c-0.246-0.308-0.516-0.583-0.818-0.782c-5.758-3.8-11.735-7.331-17.763-10.498c-0.355-0.186-0.714-0.262-1.061-0.257
	c-0.287-0.323-0.602-0.6-0.956-0.78c-6.172-3.15-12.357-5.859-18.383-8.055c-0.36-0.13-0.713-0.163-1.046-0.102
	c-0.297-0.263-0.623-0.472-0.968-0.591c-6.779-2.372-13.602-4.171-20.284-5.346c-0.371-0.057-0.706,0.002-1.012,0.128
	c-0.343-0.249-0.713-0.416-1.083-0.473c-3.977-0.621-7.81-1.031-11.564-1.223c-4.072-0.207-8.073-0.121-11.937-0.033l-0.569,0.01
	c-0.339,0.008-0.645,0.115-0.913,0.285c-0.335-0.168-0.683-0.267-1.025-0.262c-3.206,0.049-6.661,0.057-10.189-0.222
	c-3.481-0.277-6.638-0.807-9.653-1.62l-1.067-0.322c-0.134-0.042-0.265-0.037-0.396-0.05c-0.154-0.086-0.312-0.165-0.472-0.214
	c-6.967-2.202-15.905-6.856-18.939-16.55c-0.159-0.513-0.412-0.962-0.697-1.364c0.009-0.561-0.066-1.152-0.272-1.73
	c-0.407-1.142-0.777-2.346-1.151-3.555c-1.041-3.374-2.118-6.864-4.007-9.854c-0.659-1.04-1.618-1.641-2.504-1.597
	c-0.898,0.044-1.608,0.741-1.875,1.826c-0.479,1.95-0.533,4.086-0.203,6.382c-1.501-1.744-3.095-3.347-4.814-4.578
	c-0.533-0.388-1.042-0.602-1.548-0.642C8.667,2.911,7.715,3.746,7.44,4.99c-0.664,3.036,2.672,7.583,2.879,7.861
	c-0.622-0.275-1.255-0.522-1.907-0.702c-0.857-0.235-1.661,0.09-2.15,0.874c-0.491,0.786-0.61,1.93-0.316,3.067
	c0.396,1.542,1.128,2.884,2.029,4.098c-0.189,0.024-0.379,0.042-0.558,0.084c-0.895,0.213-1.526,1.104-1.644,2.323
	c-0.067,0.693,0.051,1.421,0.297,2.104l-0.23-0.008c-2.085-0.13-2.744,1.53-2.928,2.251c-0.703,2.75,1.237,5.761,2.066,7.046
	c0.096,0.152,0.208,0.278,0.32,0.407c-0.051,0.189-0.132,0.35-0.161,0.56c-0.109,0.882-0.087,3.125,2.158,5.397
	c-0.298,0.612-0.372,1.252-0.385,1.565c-0.081,2.268,1.204,3.98,2.777,5.393c-0.116,0.273-0.204,0.563-0.252,0.854
	c-0.154,0.991,0.003,1.939,0.354,2.848c-0.697,0.375-1.184,1.064-1.367,2.084c-0.334,1.899,0.444,3.954,2.32,6.111
	c1.247,1.431,2.604,2.597,3.873,3.632c-0.179-0.049-0.375-0.134-0.553-0.18c-0.337-0.082-0.594-0.122-0.794-0.136
	c-1.746-0.141-2.467,1.317-2.555,2.607c-0.011,0.153,0.015,0.294,0.017,0.44c-1.084,0.154-1.881,1.016-2.063,2.395
	c-0.175,1.318,0.259,2.655,0.881,3.839c-0.171-0.037-0.339-0.075-0.5-0.086c-1.692-0.136-2.408,0.988-2.686,1.674
	c-0.193,0.473-0.403,1.334-0.23,2.542c-0.046-0.005-0.096-0.025-0.141-0.029c-1.117-0.087-2.008,0.657-2.323,1.945
	c-0.417,1.705,0.305,3.384,0.989,4.557c-1.527,0.002-3.97,0.444-4.541,2.979c-0.349,1.554,0.099,3.378,1.203,4.885
	c0.214,0.292,0.454,0.548,0.714,0.754c3.934,3.133,8.044,6.072,12.215,8.743c0.365,0.235,0.738,0.36,1.095,0.389
	c0.007,0,0.014-0.007,0.021-0.008c0.292,0.393,0.632,0.71,1.008,0.936c7.25,4.372,15.058,6.735,24.582,7.491
	c0.97,0.078,1.936,0.087,2.905,0.13c0.481,0.022,0.891-0.25,1.24-0.547c0.397,0.299,0.809,0.304,1.258,0.34
	c0.012,0.001,0.022,0.001,0.034,0.003c0.038,0.002,0.098,0.213,0.133,0.214c2.12,0.047,4.259,0.239,6.374,0.184
	c4.979-0.097,9.863-0.466,14.396-0.883c0.371-0.036,0.709-0.136,0.995-0.376c0.247,0.113,0.514,0.317,0.771,0.337
	c0.013,0.002,0.023,0.003,0.034,0.003c0.111,0.009,0.208-0.122,0.318-0.131l4.381-0.571c4.254-0.434,8.644-0.898,12.978-1.203
	c2.03-0.137,4.039-0.279,6.047-0.317c0.238-0.006,0.433-0.138,0.639-0.226c0.162,0.05,0.267-0.086,0.429-0.056
	c0.012,0.002,0.021,0.003,0.034,0.006c0.057,0.011,0.175,0.165,0.233,0.162c2.629-0.029,5.119,0.206,7.483,0.394
	c5.924,0.471,11.374,1.654,16.662,3.618c0.199,0.074,0.394,0.118,0.583,0.133c0.074,0.004,0.135-0.03,0.206-0.035
	c0.241,0.193,0.49,0.356,0.753,0.457c4.96,1.877,9.924,3.718,14.883,5.536c0.135,0.05,0.266,0.066,0.397,0.089
	c0.155,0.094,0.311,0.178,0.472,0.238l0.664,0.242c4.703,1.732,9.409,3.459,14.104,5.264c0.106,0.041,0.208,0.049,0.314,0.073
	c0.077,0.038,0.144,0.107,0.223,0.138c1.01,0.37,2.007,0.74,3.018,1.133c5.668,2.227,11.371,4.996,16.941,8.235
	c0.239,0.138,0.481,0.185,0.723,0.237c0.215,0.228,0.438,0.449,0.693,0.603c4.688,2.814,9.296,5.954,13.7,9.329
	c2.246,1.719,4.49,3.484,6.758,5.289c0.331,0.263,0.677,0.41,1.024,0.496c0.24,0.381,0.513,0.729,0.836,0.989
	c6.499,5.231,12.185,10.108,17.385,14.911c0.175,0.162,0.366,0.27,0.552,0.381c0.183,0.271,0.384,0.531,0.613,0.742
	c1.449,1.338,2.886,2.691,4.279,4.059c3.51,3.455,7.184,7.561,11.55,12.912c0.239,0.295,0.51,0.508,0.784,0.692
	c0.168,0.381,0.369,0.747,0.626,1.065c1.493,1.848,2.974,3.712,4.455,5.574c4.474,5.63,9.098,11.449,14.006,16.711
	c0.341,0.365,0.722,0.591,1.106,0.746c0.22,0.467,0.48,0.903,0.824,1.258c3.729,3.811,7.259,6.92,10.795,9.505
	c3.361,2.438,6.871,4.548,10.442,6.278c0.27,0.13,0.54,0.207,0.804,0.227c0.121,0.008,0.225-0.047,0.343-0.061
	c0.33,0.371,0.694,0.688,1.099,0.865c6.725,2.982,14.209,4.996,22.88,6.164c0.036,0.004,0.073,0.006,0.109,0.013
	c0.345,0.025,0.657-0.07,0.945-0.22c0.373,0.27,0.772,0.447,1.174,0.493c1.914,0.222,3.827,0.401,5.731,0.553
	c1.68,0.133,3.353,0.245,5.018,0.341c2.475,0.151,5.036,0.128,7.828-0.072c0.32-0.021,0.598-0.138,0.852-0.309
	c0.196,0.071,0.381,0.116,0.578,0.134c0.107,0.007,0.189-0.009,0.295-0.019c4.869-0.452,9.615-1.391,14.257-2.266l2.868-0.625
	c0.211-0.039,0.36-0.225,0.379-0.356c0-0.002,0.027-0.19,0.027-0.19s0.341,0.05,0.352,0.052c0.156,0.021,0.414,0.208,0.565,0.181
	c1.99-0.344,4.107-0.485,6.132-0.766c4.005-0.535,8.787-1.105,13.5-0.408c0.238,0.04,0.453-0.037,0.666-0.082
	c0.227,0.127,0.447,0.115,0.686,0.162c4.773,0.984,8.346,3.012,10.975,6.623V212.839z"/>
<path fill="#DAE29F" d="M8.386,23.752c3.77,4.619,9.014,4.694,13.251,8.189c-0.175-1.09-0.316-2.176-0.428-3.236
	c-0.029-0.004-0.074,0.007-0.123-0.003C17.591,27.807,11.888,22.913,8.386,23.752z"/>
<path fill="#BED6A8" d="M8.42,15.601c1.281,4.976,9.411,8.247,12.633,10.881c-0.034-0.704-0.04-1.403-0.029-2.076
	c-0.106-0.022-0.243-0.07-0.367-0.172C16.671,21.028,12.788,16.806,8.42,15.601z"/>
<path fill="#BED6A8" d="M12.203,56.741c1.398,1.606,3.037,2.88,4.585,4.138c3.534,2.896,7.054,5.812,10.359,9.242
	c0.176-1.623,0.259-3.299,0.267-4.993c-4.657-3.716-9.314-7.786-14.246-10.417C11.228,53.678,9.911,54.103,12.203,56.741z"/>
<path fill="#DAE29F" d="M14.122,66.125c-1.976-0.481,0.329,1.223,1.044,1.737c1.507,1.07,3.135,1.827,4.694,2.683
	c2.143,1.155,4.727,2.431,6.479,4.806c0.198-0.881,0.35-1.787,0.498-2.716C22.842,69.849,18.255,67.166,14.122,66.125z"/>
<path fill="#94BC99" d="M13.042,76.846c-0.405-0.279-5.388-3.337-4.154-0.223c1.202,3.062,4.96,5.666,7.031,7.462
	c1.661,1.417,3.527,2.735,5.084,4.491c1.037-1.492,1.916-3.158,2.698-4.941c-2-0.366-4.114-2.11-5.946-3.422
	C16.183,79.071,14.624,77.91,13.042,76.846z"/>
<path fill="#94BC99" d="M14.036,38.128c-1.411-0.892-2.852-1.749-4.317-2.27c-1.681-0.607-2.949,0.167-0.997,1.998
	c1.242,1.178,2.631,1.965,3.979,2.826c0.155,0.048,0.307,0.099,0.428,0.143c4.292,1.508,7.797,5.316,12.032,6.595
	c-0.358-1.484-0.766-3.06-1.16-4.651C21.355,43.574,15.797,39.226,14.036,38.128z"/>
<path fill="#94BC99" d="M27.083,57.824c-3.724-2.455-7.356-5.252-11.208-7.274c-1.003-0.531-2.032-0.992-3.061-1.21
	c-1.869-0.402-0.042,1.906,1.273,3.316c1.623,0.955,3.232,2.242,4.244,2.997c3.085,2.312,6.207,4.771,9.096,7.643
	C27.397,61.475,27.278,59.637,27.083,57.824z"/>
<path fill="#588384" d="M19.576,50.491c2.449,1.509,4.818,3.304,7.222,4.926c-0.114-0.82-0.243-1.623-0.388-2.428
	c-0.184-1.012-0.432-2.101-0.685-3.225c-4.851,0.536-10.414-7.579-15.442-7.355c-2.458,0.082,1.912,3.221,2.815,3.875
	c1.435,1.072,2.905,2,4.374,2.901C18.214,49.625,18.928,50.106,19.576,50.491z"/>
<path fill="#94BC99" d="M16.221,15.516c1.747,1.932,3.677,3.961,4.986,6.469c0.101-0.697,0.232-1.37,0.396-2.016
	c-3.418-4.514-6.991-10.29-11.189-13.293c-1.463-1.064,1.19,3.459,1.575,3.973C13.321,12.402,14.808,13.926,16.221,15.516z"/>
<path fill="#BED6A8" d="M9.482,28.611c-0.667-0.148-1.334-0.259-2.013-0.352c-0.392-0.014-0.768-0.028-1.158-0.042
	c-1.37-0.085-1.188,1.187,0.5,3.807c1.556,1.041,3.225,1.124,4.709,2.347c0.097,0.079,0.114,0.163,0.162,0.232
	c0.726,0.397,1.405,0.791,1.963,1.116c3.012,1.781,6.684,5.043,9.737,4.556c-0.449-1.82-0.869-3.677-1.247-5.524
	c0,0-0.015-0.004-0.014-0.022c-0.87-0.886-1.79-1.583-2.733-2.166C16.11,30.951,12.911,29.374,9.482,28.611z"/>
<path fill="#BED6A8" d="M12.167,69.159c-2.505-0.905,0.921,3.15,1.411,3.623c1.34,1.355,2.809,2.496,4.246,3.632
	c2.201,1.726,4.597,3.144,6.708,5.169c0.145-0.391,0.306-0.779,0.437-1.174c0.304-0.817,0.547-1.685,0.79-2.557
	C21.375,77.223,16.507,70.717,12.167,69.159z"/>
<path fill="#588384" d="M18.783,3.525C17.658,8.116,19.818,13.6,22.257,18.02c0.324-0.735,0.726-1.434,1.205-2.08
	C21.998,11.828,20.963,6.98,18.783,3.525z"/>
<path fill="#BED6A8" d="M93.641,102.278c8.173-0.094,16.307,0.821,24.839,3.988c0.602-9.675,2.67-18.31,1.393-28.688
	c-1.236-10.152-4.493-20.254-4.141-30.181c-6.626-2.318-13.274-4.083-19.936-5.253c-0.616,10.93,3.147,23.069,3.475,34.316
	C99.533,85.707,98.867,96.867,93.641,102.278z"/>
<path fill="#2B4567" d="M370.066,217.289c-0.106-0.149-0.204-0.289-0.287-0.405c-2.9-4.069-6.297-7.561-9.714-10.792
	c0.867,5.133-0.474,14.488-1.095,17.396c3.981,0.821,7.854,2.592,11.096,6.047V217.289z"/>
<path fill="#94BC99" d="M5.973,85.988c-0.774-0.149-4.502,0.007-2.974,2.098c3.904,3.109,7.888,5.955,11.949,8.556
	c0.416-1,0.945-1.852,1.519-2.66c-2.052-1.731-4.046-3.553-6.085-5.324C8.971,87.448,7.517,86.268,5.973,85.988z"/>
<path fill="#588384" d="M8.136,80.524c-1.925-1.588-2.721-1.585-1.021,0.9c3.054,4.42,6.986,7.474,10.496,11.124
	c0.483-0.542,0.983-1.084,1.483-1.607c0.242-0.251,0.437-0.552,0.649-0.812c-2.752-1.966-5.475-4.23-8.114-6.574
	C10.484,82.514,9.323,81.493,8.136,80.524z"/>
<path fill="#2B4567" d="M45.636,38.081c-8.157-2.575-17.74-7.958-21.268-19.234c-2.305,5.917-0.989,13.771,0.888,21.713
	c0.019,0.064,0.035,0.125,0.04,0.186c1.309,5.538,2.874,11.106,3.674,16.109c2.288,12.646,0.067,18.739-2.035,25.393
	c-0.989,3.121-2.442,5.848-4.062,8.35c-1.745,2.712-4.365,4.338-5.869,7.337c8.771,5.289,17.646,6.948,26.401,7.345
	c-0.01-0.2,0.024-0.415,0.138-0.591c4.831-8.218,5.697-19.898,5.472-31.17C48.78,61.705,44.524,49.633,45.636,38.081z"/>
<path fill="#588384" d="M46.038,105.368c2.087,0.047,4.174,0.032,6.256-0.025c4.784-0.09,9.537-0.469,14.274-0.906
	c2.875-9.536,5.266-18.289,5.345-29.48c0.079-11.251-3.124-22.962-3.85-34.352c-6.673,0.107-13.343-0.009-20.402-1.912
	c-0.365-0.111-0.743-0.224-1.126-0.339c0.64,1.678,0.717,3.27,0.801,5.239c0.177,3.925,0.695,7.775,1.37,11.754
	c1.245,7.264,2.531,14.17,2.584,21.342C51.378,86.78,50.482,98.052,46.038,105.368z"/>
<path fill="#94BC99" d="M73.976,78.429c-0.214,8.773-1.57,19.04-5.304,25.797c5.813-0.571,11.601-1.225,17.436-1.633
	c2.063-0.137,4.116-0.24,6.153-0.283c-0.163-0.271-0.226-0.623-0.061-0.951c2.129-4.252,3.793-8.28,4.55-13.657
	c0.708-5.149,0.521-10.729,0.268-16.205c-0.455-9.859-3.674-19.995-3.278-29.692c-3.796-0.595-7.583-1.009-11.36-1.202
	c-4.196-0.211-8.29-0.106-12.368-0.019C70.994,53.2,74.262,65.957,73.976,78.429z"/>
<path fill="#DAE29F" d="M135.815,56.013c-5.99-3.055-12.034-5.72-18.101-7.934c-0.347,10.328,3.099,21.223,4.386,31.744
	c1.114,9.25-0.308,18.768-2.062,27.004c4.951,1.875,9.906,3.711,14.859,5.527c-1.554-9.276-0.485-18.96-0.034-27.788
	C135.358,75.089,135.84,65.672,135.815,56.013z"/>
<path fill="#BED6A8" d="M136.851,83.435c-0.563,9.604-0.166,19.812-1.083,29.249c4.936,1.813,9.875,3.625,14.802,5.519
	c-0.237-0.208-0.402-0.519-0.397-0.997c0.148-7.049,0.008-14.197,0.201-21.259c0.133-4.902,0.98-9.685,1.679-14.335
	c0.728-4.765,1.45-10.188,3.263-14.227c-5.771-3.81-11.612-7.252-17.512-10.35C138.003,65.989,137.367,74.72,136.851,83.435z"/>
<path fill="#94BC99" d="M151.072,118.398c1.025,0.378,2.032,0.751,3.058,1.148c5.908,2.32,11.658,5.128,17.314,8.416
	c-0.72-15.854,8.131-27.203,6.867-43.383c-6.949-5.795-14.027-11.191-21.242-16.038c-1.651,9.45-4.303,18.372-4.599,28.548
	c-0.114,3.767-0.076,7.582-0.132,11.36c-0.049,2.942,0.212,6.702-0.528,9.352C151.694,118.219,151.386,118.398,151.072,118.398z"/>
<path fill="#588384" d="M180.315,86.265c0.604,7.058-0.93,13.4-2.566,19.468c-2.045,7.581-4.184,14.724-4.852,23.092
	c4.701,2.824,9.358,5.979,13.99,9.529c2.261,1.732,4.522,3.508,6.808,5.324c0.005-0.099,0.018-0.193,0.058-0.306
	c2.197-5.658,4.178-11.438,5.503-17.765c1.351-6.418,1.524-13.207,1.757-20.081C194.316,98.725,187.396,92.281,180.315,86.265z"/>
<path fill="#2B4567" d="M206.772,111.487c-1.365-1.46-2.77-2.89-4.161-4.316c1.007,14.054-2.485,26.983-7.001,37.954
	c-0.014,0.02-0.029,0.037-0.042,0.051c5.937,4.781,11.856,9.795,17.564,15.068c0.532-4.783,3.259-8.482,4.881-12.439
	c2.428-5.848,2.404-13.316,3.871-19.811C216.871,122.456,211.857,116.897,206.772,111.487z"/>
<path fill="#588384" d="M230.508,178.744c-0.001-3.987,1.752-7.381,3.056-10.479c2.757-6.506,4.755-14.075,5.001-22.166
	c0.014-0.058,0.027-0.096,0.04-0.131c-5.074-5.21-10.039-10.619-14.988-16.065c-0.973,5.536-1.245,11.605-2.885,16.714
	c-1.665,5.182-4.091,10.138-6.433,14.749c1.479,1.366,2.943,2.743,4.362,4.136C222.824,169.601,226.721,174.102,230.508,178.744z"/>
<path fill="#94BC99" d="M237.474,164.514c-1.814,5.453-4.426,9.995-5.544,16.002c6.041,7.472,11.886,15.223,18.268,22.062
	c1.469-5.301,4.172-9.463,6.047-14.424c2.469-6.563,2.814-14.796,5.157-21.401c-7.285-5.616-14.188-12.06-20.915-18.866
	C240.275,153.69,239.125,159.609,237.474,164.514z"/>
<path fill="#BED6A8" d="M262.605,167.684c-0.306,6.583-2,13.056-3.529,18.861c-1.701,6.572-5.367,11.387-7.01,17.971
	c3.271,3.345,6.68,6.438,10.354,9.125c3.3,2.393,6.624,4.373,9.991,6.002c0.012-0.018,0.011-0.058,0.023-0.096
	c6.129-10.881,4.556-27.598,5.534-41.57c-5.188-2.979-10.313-6.483-15.288-10.236L262.605,167.684z"/>
<path fill="#DAE29F" d="M278.38,205.52c-0.522,4.385-0.972,12.256-3.803,15.119c7.349,3.256,14.831,4.986,22.263,5.985
	c1.504-7.269,0.087-15.34-1.039-23.277c-0.757-5.333-2.176-13.107-0.52-17.891c-0.807-0.237-1.6-0.448-2.391-0.703
	c-4.59-1.485-9.139-3.584-13.627-6.068C280.202,188.002,279.451,196.832,278.38,205.52z"/>
<path fill="#94BC99" d="M312.668,188.682c0.842,8.537,4.793,16.583,5.902,25.074c0.362,2.82,1.406,10.283,0.426,13.805
	c5.794-0.537,11.426-1.719,17.12-2.771c-0.209-0.32-0.337-0.764-0.19-1.133c3.254-8.026,2.045-21.602-0.892-31.525
	c-1.536-0.416-3.102-0.836-4.683-1.224c-2.082-0.543-4.168-1.165-6.257-1.809C320.314,189.144,316.498,189.023,312.668,188.682z"/>
<path fill="#588384" d="M337.352,224.571c2.01-0.348,4.049-0.692,6.091-0.978c4.083-0.543,9.101-1.109,14.044-0.371
	c-0.221-3.236,0.551-6.496,0.789-9.562c0.143-1.984,0.193-4.01,0.062-6.069c-0.086-1.436-0.761-2.642-0.945-3.952
	c-6.713-5.887-13.324-8.782-20.332-10.915c1.506,5.315,2.071,10.988,2.314,16.262C339.621,214.278,339.543,220.564,337.352,224.571z
	"/>
<path fill="#BED6A8" d="M296.589,185.828c0.157,2.86-0.035,5.679,0.169,8.567c0.307,4.149,1.023,8.356,1.636,12.543
	c0.983,6.853,1.817,13.693,0.64,19.97c3.562,0.408,7.115,0.678,10.637,0.881c2.59,0.162,5.109,0.11,7.591-0.066
	c-0.284-1.53,0.036-3.264,0.043-4.658c0.015-3.645-0.164-7.252-0.798-10.984c-1.341-8.016-4.859-15.5-5.707-23.582
	C306.076,187.983,301.335,187.127,296.589,185.828z"/>
<g>
	<path fill="#832625" d="M370.066,164.524c-3.051-0.763-6.065-1.783-9.014-3.072c-0.225-0.097-0.456-0.146-0.688-0.165
		c-0.17-0.157-0.354-0.3-0.566-0.398c-5.549-2.598-10.545-6.391-14.795-9.742c-0.182-0.145-0.386-0.245-0.598-0.324
		c-0.109-0.144-0.204-0.3-0.35-0.416c-1.912-1.538-3.828-3.072-5.765-4.568c-3.078-2.39-6.528-4.643-10.542-6.877
		c-0.258-0.145-0.539-0.212-0.822-0.244c-0.187-0.229-0.401-0.434-0.666-0.576c-4.541-2.437-9.101-4.531-13.926-6.748l-0.141-0.063
		c-2.936-1.346-5.563-2.495-8.038-3.515c-0.245-0.1-0.499-0.142-0.753-0.15c-0.189-0.168-0.396-0.316-0.635-0.414
		c-6.975-2.797-13.262-4.711-19.214-5.85c-0.573-0.11-1.155,0.027-1.64,0.356c-7.398-1.733-14.937-2.117-22.646-2.347
		c-0.389-0.189-0.847-0.387-1.41-0.412c-0.138-0.006-0.272,0.013-0.404,0.031c-0.154-0.041-0.311-0.07-0.473-0.079
		c-2.703-0.146-5.469-0.418-8.143-0.682c-4.08-0.4-8.299-0.817-12.529-0.813c-0.236,0-0.464,0.035-0.68,0.105
		c-0.243-0.072-0.498-0.132-0.76-0.114c-0.06-0.003-0.24-0.035-0.3-0.032c-2.006,0.06-4.082,0.207-6.314,0.554
		c-5.264,0.817-10.466,2.228-15.481,3.655l-0.469,0.133c-0.385,0.109-0.699,0.441-0.977,0.733c-0.372-0.097-0.738-0.013-1.126,0.098
		c-2.42,0.692-4.833,1.403-7.247,2.116c-4.972,1.467-10.111,2.986-15.197,4.268c-0.184,0.045-0.335,0.146-0.496,0.232
		c-0.224-0.019-0.448-0.014-0.672,0.041c-6.435,1.582-11.663,2.488-16.469,2.873c-0.189,0.014-0.369,0.062-0.542,0.122
		c-0.168-0.028-0.34-0.04-0.513-0.028c-0.875,0.059-1.764,0.09-2.64,0.109c-4.208,0.09-8.794-0.73-14.439-2.579
		c-0.184-0.059-0.37-0.072-0.557-0.083c-0.182-0.133-0.379-0.247-0.598-0.318c-1.218-0.409-2.413-0.828-3.608-1.275
		c-4.307-1.608-8.31-3.413-12.239-5.52c-0.187-0.1-0.385-0.149-0.584-0.191c-0.163-0.176-0.344-0.334-0.559-0.451
		c-0.859-0.467-1.706-0.924-2.541-1.435l-0.656-0.388c-5.003-2.964-11.212-6.632-17.809-5.74c-0.266-0.246-0.568-0.454-0.937-0.548
		c-1.021-0.258-2.026-0.591-3.09-0.941l-0.745-0.247c-1.421-0.46-2.873-0.71-4.443-0.766c-0.307-0.001-1.143,0.004-1.859,0.116
		c-1.989,0.31-2.486,1.522-2.606,2.219c-0.044,0.254-0.066,0.683,0.075,1.161c-0.468,0.011-0.931,0.036-1.33,0.098
		c-1.66,0.259-2.287,1.173-2.523,1.895c-0.172,0.534-0.149,1.085,0.019,1.601c-0.061,0.009-0.134,0.008-0.189,0.018
		c-1.981,0.307-2.427,1.812-2.516,2.266c-0.321,1.632,0.829,2.938,1.715,3.684c-1.274,0.636-1.579,1.755-1.642,2.152
		c-0.192,1.215,0.402,2.408,1.564,3.263c-0.988,0.583-1.37,1.379-1.487,2.058c-0.094,0.567-0.064,1.502,0.737,2.406
		c-0.205,0.014-0.411,0.028-0.575,0.053c-0.355,0.055-1.439,0.224-2.104,1.204c-0.356,0.528-0.513,1.314-0.389,1.94
		c0.088,0.42,0.256,0.779,0.453,1.111c-1.937,0.648-2.358,1.973-2.427,2.72c-0.173,1.884,1.424,3.203,2.905,4.015
		c-0.427,0.361-0.754,0.796-0.926,1.338c-0.212,0.664-0.362,1.982,0.984,3.369c-0.399,0.199-0.753,0.482-0.983,0.881
		c-0.498,0.869-0.586,1.818-0.252,2.679c0.144,0.364,0.426,0.79,0.882,1.171c-0.396,0.328-0.699,0.727-0.86,1.225
		c-0.154,0.475-0.393,1.703,0.734,2.884c0.68,0.708,1.55,1.204,2.499,1.567c-0.099,0.119-0.197,0.238-0.271,0.375
		c-0.889,1.648-1.037,3.081-0.441,4.262c0.121,0.236,0.292,0.492,0.519,0.736c-0.146,0.24-0.271,0.507-0.338,0.826
		c-0.108,0.506-0.184,1.72,1.044,2.775c-0.129,0.256-0.242,0.523-0.297,0.826c-0.243,1.254,0.312,2.488,1.48,3.303
		c0.02,0.016,0.042,0.02,0.061,0.033c-0.678,0.803-0.959,1.787-0.734,2.748c0.213,0.924,0.802,1.564,1.488,2.036
		c-0.438,1.548,0.583,2.896,0.989,3.418c0.023,0.032,0.059,0.048,0.085,0.078c-0.099,0.44-0.073,0.817-0.046,0.997
		c0.151,0.93,0.678,1.495,1.328,1.865c-0.179,0.303-0.289,0.61-0.343,0.896c-0.114,0.605-0.173,2.141,1.762,3.299
		c0.142,0.084,0.287,0.154,0.43,0.234c-0.531,0.6-0.683,1.26-0.702,1.717c-0.026,0.615-0.094,2.455,3.809,3.938
		c-0.216,0.226-0.4,0.487-0.516,0.791c-0.276,0.729-0.179,1.551,0.257,2.186c1.84,2.686,5.154,3.458,8.075,4.141
		c0.593,0.138,1.176,0.273,1.729,0.424c0.301,0.081,0.607,0.096,0.902,0.051c0.273-0.042,0.53-0.145,0.771-0.285
		c0.089,0.049,0.162,0.123,0.259,0.16c5.129,1.965,10.502,3.512,15.97,4.596c0.253,0.052,0.51,0.057,0.758,0.02
		c0.059-0.01,0.112-0.036,0.169-0.051c0.269,0.201,0.577,0.351,0.912,0.411c6.024,1.08,12.172,1.604,18.792,1.586
		c0.111,0.001,0.221,0.005,0.33-0.013c0.251-0.039,0.488-0.107,0.708-0.227c0.326,0.174,0.696,0.328,1.077,0.32
		c5.702-0.115,11.521-0.915,17.669-1.473c0.001,0,0,0,0.001,0l1.8-0.406c0.267-0.049,0.493-0.268,0.721-0.404
		c0.389,0.22,0.818,0.343,1.247,0.277c0.017-0.003,0.033-0.007,0.051-0.01c5.009-0.777,10.232-2.191,17.032-3.857
		c0.4-0.098,0.74-0.332,1.02-0.625c0.24,0.047,0.487,0.066,0.734,0.027c0.065-0.011,0.129-0.023,0.193-0.039
		c2.939-0.729,5.874-1.481,8.809-2.234c3.308-0.846,6.616-1.694,9.929-2.509c0.375-0.093,0.694-0.296,0.967-0.548
		c0.31,0.094,0.637,0.123,0.962,0.072c0.061-0.01,0.123-0.021,0.183-0.037c6.679-1.625,12.135-2.796,17.168-3.685
		c1.716-0.291,3.475-0.556,5.221-0.802c0.354-0.057,0.68-0.209,0.967-0.414c0.329,0.127,0.684,0.193,1.048,0.148
		c5.304-0.662,11.093-1.107,18.216-1.404c0.082-0.002,0.164-0.01,0.243-0.022c0.202-0.032,0.394-0.1,0.579-0.185
		c0.266,0.101,0.549,0.168,0.853,0.154c1.091-0.045,2.183-0.088,3.276-0.119c4.289-0.13,8.891-0.222,13.519-0.018
		c0.146,0.008,0.29-0.001,0.431-0.023c0.156-0.024,0.295-0.101,0.441-0.156c0.285,0.158,0.599,0.254,0.928,0.273
		c4.48,0.273,8.393,0.812,11.965,1.648c0.396,0.09,0.766,0.195,1.131,0.301l0.589,0.167c0.292,0.079,0.595,0.094,0.893,0.05
		c0.203,0.158,0.426,0.292,0.679,0.371c6.236,1.943,12.301,5.14,18.166,8.229l1.426,0.752c0.295,0.155,0.617,0.214,0.941,0.223
		c0.207,0.278,0.469,0.515,0.783,0.674l1.695,0.881c5.726,2.948,11.643,5.998,17.714,8.521c0.267,0.111,0.548,0.146,0.829,0.146
		c0.211,0.214,0.467,0.389,0.762,0.504c2.331,0.92,4.631,1.729,6.832,2.41c3.589,1.09,7.308,1.984,11.063,2.659
		c0.239,0.042,0.482,0.045,0.72,0.007c0.111-0.018,0.217-0.059,0.326-0.093c0.279,0.204,0.6,0.35,0.951,0.405
		c4.933,0.784,9.939,1.18,14.855,1.207V164.524z"/>
	<path fill="#C1DCDB" d="M101.142,125.498c0.105,0.045,0.224,0.065,0.33,0.113c0.671,0.17,1.345,0.367,1.994,0.592
		c1.674,0.469,3.386,0.854,5.101,1.117c0.272-0.932,0.561-1.877,0.834-2.807c-1.476-0.399-2.946-0.906-4.415-1.402
		c-1.529-0.396-3.177-0.838-4.647-1.373c-1.459-0.333-2.928-0.561-4.434-0.528c-2.153,0.048-0.343,1.78,0.517,2.315
		C97.861,124.424,99.543,124.986,101.142,125.498z"/>
	<path fill="#E6E8D2" d="M105.572,118.657c-1.33-0.343-2.671-0.645-4.037-0.892c-0.247-0.05-4.906-0.442-3.888,0.619
		c0.935,0.959,2.111,1.578,3.399,2.032c0.881,0.21,1.764,0.461,2.636,0.727c2.145,0.489,4.346,0.843,6.173,1.717
		c0.261-0.929,0.496-1.858,0.718-2.799C108.898,119.647,107.234,119.098,105.572,118.657z"/>
	<path fill="#D5802D" d="M103.534,114.159c-0.391-0.001-3.208,0.023-1.748,0.827c2.813,1.534,6.16,2.174,9.173,3.372
		c0.152-0.761,0.281-1.534,0.394-2.31c-1.343-0.34-2.641-0.792-3.977-1.229C106.105,114.406,104.861,114.206,103.534,114.159z"/>
	<path fill="#E6E8D2" d="M92.716,143.876c3.81,1.925,8.469,1.874,12.315,3.555c0.048-1.265,0.122-2.53,0.221-3.786
		c-0.013,0.002-0.026-0.012-0.04-0.024c-0.352-0.271-0.741-0.503-1.142-0.702c-2.077-0.455-5.846-0.961-8.747-1.965
		c-1.211-0.081-2.444-0.041-3.596,0.303C89.454,141.941,91.862,143.436,92.716,143.876z"/>
	<path fill="#D5802D" d="M105.84,138.25c-2.748-0.397-13.355-1.93-13.123-0.765c0.161,0.755,1.048,1.327,2.163,1.778
		c3.202,0.125,7.069,1.215,9.437,2.255c0.368,0.097,0.725,0.192,1.083,0.305c0.12-1.124,0.252-2.258,0.414-3.368
		C105.822,138.385,105.832,138.317,105.84,138.25z"/>
	<path fill="#99CBE2" d="M96.183,126.775c-1.886,0.178-1.265,1.316-0.102,1.913c1.03,0.537,2.152,0.88,3.251,1.236
		c2.587,0.825,5.19,1.619,7.76,2.499c0.281-1.039,0.575-2.078,0.882-3.105C104.015,128.424,100.373,126.406,96.183,126.775z"/>
	<path fill="#C1DCDB" d="M100.119,147.846c-1.293-0.343-2.606-0.594-3.941-0.773c-0.836-0.107-4.926-0.08-3.07,1.812
		c2.849,2.9,8.304,1.926,11.881,3.477c-0.02-1.075,0.001-2.136,0.021-3.197C103.367,148.803,101.75,148.251,100.119,147.846z"/>
	<path fill="#D5802D" d="M95.983,165.085c0.687,0.212,1.429,0.241,2.144,0.247c0.143,0.006,0.224,0.066,0.295,0.144
		c2.635-0.026,5.509,0.069,8,0.925c-0.274-1.459-0.525-2.918-0.723-4.408c-0.002-0.027-0.003-0.053-0.005-0.093
		c-0.052,0.003-0.09,0.019-0.143,0.01c-2.066-0.271-4.118-0.497-6.209-0.479c-1.44,0.013-2.884,0.229-4.127,0.995
		C94.33,164.064,94.587,164.948,95.983,165.085z"/>
	<path fill="#99CBE2" d="M95.983,154.387c3.088,0.428,6.195,0.977,9.195,1.894c-0.058-0.802-0.101-1.603-0.119-2.407
		c-0.04,0.002-0.064,0.004-0.104,0.004c-3.395-0.541-6.714-1.371-10.149-1.506c-0.783-0.045-1.598-0.018-2.352,0.206
		c-0.32,0.559-0.064,0.956,0.764,1.187C93.972,154.195,95.13,154.268,95.983,154.387z"/>
	<path fill="#C1DCDB" d="M95.956,133.73c3.145,1.713,6.842,1.833,10.154,3.025c0.181-0.965,0.376-1.93,0.608-2.871
		c-1.683-0.374-3.335-0.923-5.009-1.336c-1.21-0.296-2.419-0.526-3.647-0.674C96.727,131.707,93.491,132.389,95.956,133.73z"/>
	<path fill="#C1DCDB" d="M105.307,158.151c-1.513-0.103-3.057-0.552-4.488-0.833c-1.353-0.273-2.704-0.509-4.064-0.688
		c-0.081-0.008-5.501-0.352-4.125,1.09c1.613,1.68,5.451,1.791,7.598,2.078c0.848,0.04,1.68,0.119,2.493,0.227
		c0.952,0.072,1.907,0.17,2.83,0.393C105.455,159.658,105.375,158.912,105.307,158.151z"/>
	<path fill="#D5802D" d="M99.272,181.004c2.489-1.506,7.59-0.848,10.497-0.648c-0.242-0.882-0.472-1.754-0.699-2.623
		c-2.31,0.795-4.761,1.104-7.149,1.34c-0.957,0.103-1.894,0.068-2.853,0.105c-1.109-0.088-1.197,0.455-0.287,1.63
		C98.9,180.881,99.086,180.936,99.272,181.004z"/>
	<path fill="#99CBE2" d="M100.946,187.391c3.424,2.045,7.663,2.115,11.463,3.168c-0.241-1.044-0.492-2.072-0.754-3.105
		c-1.451-0.132-2.967-0.759-4.31-1.1c-1.396-0.352-2.815-0.634-4.249-0.74C101.988,185.538,98.865,186.145,100.946,187.391z"/>
	<path fill="#C1DCDB" d="M110.18,181.887c-2.169-0.004-4.34-0.24-6.505-0.191c-1.361,0.035-2.863,0.133-4.071,0.857
		c-1.208,0.723,1.303,1.016,1.87,1.165c0.657,0.159,1.237,0.308,1.807,0.542c2.78,0.231,6.134,1.194,7.974,1.596
		c-0.032-0.091-0.05-0.198-0.081-0.289C110.846,184.34,110.52,183.113,110.18,181.887z"/>
	<path fill="#C1DCDB" d="M104.382,193.205c2.769,0.973,6.202,1.085,9.03,2.147c-0.107-0.488-0.212-0.965-0.285-1.39
		c-0.093-0.533-0.228-1.061-0.333-1.592c-1.949-0.194-3.846-0.928-5.731-1.408c-1.383-0.352-2.837-0.619-4.245-0.231
		C99.926,191.512,103.972,193.059,104.382,193.205z"/>
	<path fill="#99CBE2" d="M104.599,170.346c-2.411-0.11-4.928-0.805-7.328-0.271c-0.604,0.133-2.165,1.068-0.787,2.026
		c0.541,0.378,1.4,0.415,2.041,0.495c0.653,0.078,1.268,0.158,1.886,0.293c0.751-0.05,1.479-0.055,2.178-0.062
		c1.366,0.006,3.723-0.122,5.326,0.484c-0.253-1.072-0.507-2.143-0.748-3.213C106.354,170.395,105.367,170.377,104.599,170.346z"/>
	<path fill="#C1DCDB" d="M100.523,168.504c1.877,0.146,3.782,0.545,5.67,0.369c0.323-0.035,0.542-0.076,0.683-0.125
		c-0.037-0.173-0.072-0.346-0.106-0.504c-0.671-0.386-2.188-0.811-2.608-0.889c-1.575-0.301-3.207-0.435-4.807-0.479
		c-0.664-0.023-1.335,0.007-2.013,0.011c-0.013-0.001-3.405,0.224-1.662,1.386c0.389,0.268,0.9,0.342,1.384,0.405
		C98.165,168.379,99.465,168.414,100.523,168.504z"/>
	<path fill="#C1DCDB" d="M100.925,177.755c2.66-0.056,5.271-0.763,7.917-0.839c-0.198-0.78-0.396-1.561-0.595-2.338
		c-0.661,0.041-1.357-0.113-1.997-0.18c-1.594-0.164-3.221-0.205-4.827-0.141c-1.427,0.055-3.318,0.137-4.389,1.227
		c-1.132,1.148,1.039,1.893,2.136,2.236C99.779,177.707,100.405,177.76,100.925,177.755z"/>
	<path fill="#CE611C" d="M108.008,137.719c-1.647,8.122-1.101,17.201-0.08,25.348c1.1,8.723,3.997,17.028,6.072,25.495
		c0.836,3.409,2.437,8.444,1.619,12.017c5.175,1.983,10.373,3.453,15.614,4.493c0.004-0.135,0.035-0.296,0.13-0.464
		c1.496-2.582,1.329-5.873,1.258-8.781c-0.096-3.658-0.462-7.299-0.908-10.947c-1.105-9.002-2.404-18.006-3.727-26.978
		c-1.13-7.604-1.214-15.063,0.177-22.643c0.582-3.097,1.587-9.192,4.627-11.298c-0.883-0.477-1.768-0.957-2.64-1.492
		c-5.156-3.043-11.141-6.785-17.347-5.788C112.497,123.882,109.428,130.714,108.008,137.719z"/>
	<path fill="#D5802D" d="M104.923,196.915c1.666,2.427,5.521,2.847,8.554,3.669c0.095-0.141,0.219-0.256,0.372-0.334
		c0.175-0.855,0.107-1.846-0.039-2.816C110.893,196.847,107.835,196.258,104.923,196.915z"/>
	<path fill="#D5802D" d="M129.496,138.271c-1.164,8.641,0.027,16.846,1.337,25.362c1.333,8.652,2.54,17.42,3.408,26.141
		c0.461,4.654,1.446,11.489-1.208,15.663c6.088,1.093,12.218,1.563,18.399,1.545c0.035-0.093,0.068-0.19,0.128-0.289
		c2.173-3.243,2.524-8.192,2.967-11.979c0.597-5.004,0.434-10.094,0.07-15.092c-0.549-7.171-1.917-14.13-3.738-21.043
		c-1.492-5.646-2.86-11.41-3.168-17.297c-0.167-3.062-0.036-7.542,2.442-9.73c-1.245-0.414-2.464-0.846-3.683-1.301
		c-4.375-1.635-8.465-3.473-12.506-5.64C130.956,128.16,130.099,133.83,129.496,138.271z"/>
	<path fill="#E6E8D2" d="M173.178,170.713c-1.051-7.086-2.591-14.099-4.194-21.082c-0.645-2.775-1.04-5.461-1.027-8.336
		c0.01-2.43,0.699-4.514,1.239-6.765c-0.907,0.06-1.826,0.093-2.735,0.112c-5.176,0.111-10.243-1.073-15.162-2.686
		c-2.774,4.143-2.026,9.76-1.3,14.447c0.847,5.477,2.41,10.797,3.819,16.128c1.937,7.362,2.797,15.253,2.996,22.892
		c0.11,4.395-0.207,8.804-0.892,13.158c-0.442,2.807-1.002,5.877-2.424,8.387c6.204-0.123,12.457-0.734,18.778-1.779
		c0.116-0.021,0.231-0.044,0.347-0.062C176.348,194.425,174.805,181.668,173.178,170.713z"/>
	<path fill="#C1DCDB" d="M169.6,141.187c-0.029,3.991,1.088,7.757,1.972,11.591c1.58,6.742,2.912,13.529,3.884,20.378
		c1.435,10.067,2.462,21.743-0.84,31.624c5.672-1.014,11.304-2.297,16.919-3.67c-0.006-0.121,0.012-0.258,0.082-0.408
		c2.128-4.515,1.422-10.081,0.913-14.879c-0.527-5.094-1.09-10.156-1.526-15.27c-0.546-6.676-1.779-13.279-2.855-19.883
		c-1.031-6.252-1.04-12.803-1.049-19.166c-5.513,1.356-11.166,2.479-16.817,2.928C170.301,136.674,169.606,138.934,169.6,141.187z"
		/>
	<path fill="#99CBE2" d="M188.278,131.228c0.984,6.82,0.728,13.765,1.855,20.575c1.177,7.024,2.379,14.02,2.911,21.139
		c0.392,5.236,1.194,10.419,1.61,15.654c0.311,3.979,0.391,8.296-1.158,12.035c6.254-1.551,12.489-3.208,18.743-4.744
		c-0.001-0.041-0.002-0.08-0.006-0.121c0.007-0.146,0.051-0.285,0.134-0.397c0.019-0.108,0.052-0.232,0.097-0.368
		c0.024-0.499,0.01-0.995-0.002-1.479c-0.072-1.779,0.153-3.62,0.143-5.403c-0.017-4.134-0.021-8.255-0.285-12.372
		c-0.548-8.795-2.051-17.488-2.661-26.268c-0.415-5.905-0.644-12.013-0.334-17.939c0.101-1.725,0.31-4.787,1.464-6.713
		C203.281,126.969,195.836,129.322,188.278,131.228z"/>
	<path fill="#C1DCDB" d="M211.045,136.395c0.208,6.388,0.44,12.735,1.048,19.111c0.789,8.004,2.028,15.922,2.353,23.969
		c0.164,3.922,0.119,7.896,0.023,11.822c-0.022,1.049,0.125,2.743-0.114,4.076c5.742-1.396,11.491-2.686,17.307-3.713
		c1.762-0.303,3.527-0.566,5.294-0.814c0.03-0.138,0.076-0.274,0.17-0.415c2.754-3.563,1.834-10.415,1.592-14.603
		c-0.307-5.133-1.016-10.24-1.606-15.342c-0.983-8.474-2.317-16.938-3.455-25.387c-0.657-4.829-1.395-10.955,1.343-15.309
		c-0.117,0.008-0.247,0.002-0.364-0.004c-7.301,0.224-14.64,2.382-21.686,4.414C210.364,127.244,210.921,132.671,211.045,136.395z"
		/>
	<path fill="#E6E8D2" d="M236.299,119.785c-2.144,6.652-1.059,13.172-0.207,19.961c1.025,8.27,2.373,16.476,3.406,24.729
		c0.645,5.114,1.211,10.229,1.312,15.378c0.065,3.326,0.152,7.775-1.805,10.723c6.117-0.764,12.227-1.162,18.395-1.419
		c-0.09-0.196-0.152-0.421-0.167-0.7c-0.158-2.863-0.185-5.719-0.304-8.586c-0.262-6.196,0.098-12.463,0.734-18.625
		c0.752-7.136,0.473-14.365,0.069-21.521c-0.341-5.979-1.54-12.437-0.882-18.453C249.984,120.904,243.182,119.777,236.299,119.785z"
		/>
	<path fill="#D5802D" d="M276.056,188.955c0.05-0.07,0.099-0.127,0.16-0.186c0.129-0.705-0.097-1.751-0.026-2.359
		c0.381-3.435,0.443-6.849,0.501-10.289c0.131-6.371,0.511-12.73,0.968-19.098c0.416-5.905,0.924-11.818,1.628-17.704
		c0.599-4.979,0.874-11.076,2.901-15.813l-0.012,0.002c-7.648-1.365-15.551-1.91-23.318-2.139c-0.364-0.003-0.742-0.031-1.107-0.047
		c1.147,5.053,1.167,10.607,1.577,15.748c0.481,5.941,0.755,11.883,0.628,17.838c-0.134,5.861-0.92,11.686-1.078,17.549
		c-0.082,2.797-0.096,5.602,0.019,8.4c0.052,1.446,0.001,2.899,0.003,4.351c-0.003,0.401-0.211,3.261-0.032,3.423
		c0.137,0.127,0.197,0.296,0.206,0.471c1.104-0.047,2.203-0.092,3.309-0.123C266.943,188.84,271.514,188.756,276.056,188.955z"/>
	<path fill="#CE611C" d="M292.191,190.904c2.563-2.771,3.41-8.195,4.199-11.818c1.682-7.707,2.11-15.775,2.64-23.637
		c0.426-6.242,0.72-12.489,1.13-18.746c0.128-1.941,0.146-5.631,1.783-7.283c-6.097-2.449-12.326-4.494-18.811-5.736
		c-0.074,2.463-0.653,4.943-1.025,7.359c-0.51,3.279-0.9,6.581-1.254,9.893c-0.746,6.975-1.193,13.984-1.668,20.98
		c-0.438,6.702-0.42,13.411-0.729,20.115c-0.107,2.076-0.32,4.143-0.479,6.209c-0.012,0.254-0.033,0.536-0.086,0.822
		c4.132,0.254,8.25,0.748,12.33,1.704c0.604,0.134,1.201,0.321,1.796,0.483C292.047,191.131,292.095,191.006,292.191,190.904z"/>
	<path fill="#D5802D" d="M293.664,191.695c6.938,2.162,13.513,5.745,19.959,9.134c2.918-1.035,3.197-9.696,3.49-12.174
		c0.555-4.802,0.783-9.636,0.975-14.466c0.32-7.915,0.75-15.459,2.547-23.201c0.66-2.848,1.703-8.758,4.58-10.785
		c-4.524-2.426-9.188-4.565-13.945-6.752c-2.639-1.208-5.287-2.377-7.957-3.477c-2.24,2.51-1.534,9.228-1.693,12.258
		c-0.408,7.504-0.84,15.021-1.441,22.523c-0.502,6.277-1.216,12.687-2.936,18.746C296.634,185.647,295.708,190.138,293.664,191.695z
		"/>
	<path fill="#E6E8D2" d="M315.322,201.714c0.347,0.177,0.68,0.356,1.029,0.534c5.987,3.086,12.005,6.209,18.227,8.796
		c2.536-9.86,1.08-20.329,1.596-30.39c0.254-5.049,0.81-10.092,1.796-15.057c0.868-4.337,2.112-9.615,4.7-13.354
		c-1.901-1.529-3.805-3.055-5.73-4.54c-3.297-2.563-6.728-4.726-10.266-6.697c-2.059,1.759-2.869,5.021-3.562,7.523
		c-0.862,3.023-1.56,6.155-2.079,9.249c-1.164,6.764-0.949,13.715-1.316,20.545c-0.284,5.239-0.687,10.487-1.598,15.66
		C317.754,196.089,317.213,199.99,315.322,201.714z"/>
	<path fill="#C1DCDB" d="M337.854,184.049c-0.393,8.965,1.391,19.009-1.722,27.631c2.19,0.861,4.415,1.656,6.675,2.354
		c3.527,1.07,7.135,1.935,10.807,2.595c0.027-0.205,0.162-0.389,0.337-0.507c-0.021-0.106,0.094-0.396,0.354-0.856
		c0.104-0.476,0.194-0.951,0.299-1.43c0.312-1.428,0.521-2.836,0.688-4.298c0.376-3.567,0.791-7.14,1.051-10.701
		c0.357-5.071,0.125-10.034-0.268-15.069c-0.449-5.822-1.919-16.077,2.787-20.76c-5.534-2.592-10.434-6.229-15.229-10.01
		c-1.207,4.738-3.208,9.23-4.137,14.096C338.41,172.668,338.088,178.383,337.854,184.049z"/>
	<path fill="#99CBE2" d="M370.066,166.923c-3.378-0.809-6.685-1.922-9.902-3.33c-4.798,6.771-2.32,17.63-1.861,25.291
		c0.32,5.36-0.122,10.801-0.74,16.129c-0.352,3.044-0.41,6.241-1.197,9.206c-0.249,0.916-0.295,1.993-0.799,2.723
		c4.779,0.76,9.641,1.163,14.5,1.191V166.923z"/>
</g>
</svg>
