<?xml version="1.0" encoding="utf-8"?>
<!-- Generator: Adobe Illustrator 15.1.0, SVG Export Plug-In . SVG Version: 6.00 Build 0)  -->
<!DOCTYPE svg PUBLIC "-//W3C//DTD SVG 1.1//EN" "http://www.w3.org/Graphics/SVG/1.1/DTD/svg11.dtd" [
	<!ENTITY ns_flows "http://ns.adobe.com/Flows/1.0/">
	<!ENTITY ns_extend "http://ns.adobe.com/Extensibility/1.0/">
	<!ENTITY ns_ai "http://ns.adobe.com/AdobeIllustrator/10.0/">
	<!ENTITY ns_graphs "http://ns.adobe.com/Graphs/1.0/">
]>
<svg version="1.1" id="Camada_1" xmlns:x="&ns_extend;" xmlns:i="&ns_ai;" xmlns:graph="&ns_graphs;"
	 xmlns="http://www.w3.org/2000/svg" xmlns:xlink="http://www.w3.org/1999/xlink" xmlns:a="http://ns.adobe.com/AdobeSVGViewerExtensions/3.0/"
	 x="0px" y="0px" width="304.968px" height="127.733px" viewBox="0 0 304.968 127.733" enable-background="new 0 0 304.968 127.733"
	 xml:space="preserve">
<path fill="#9D2A2A" d="M43.173,21.468L43.173,21.468c0,0,0,0,0.008,0c0.042,0.025,0.106,0.025,0.149,0.029l0,0
	c-0.048-0.004-0.132-0.046-0.149-0.029C43.173,21.468,43.173,21.468,43.173,21.468L43.173,21.468 M109.943,81.697h-0.009
	 M109.934,81.713c3.676,0.034,11.572-0.724,12.858-4.973c2.188,6.714,38.773,11.024,45.885-5.782
	c0.882,9.441,10.723,9.434,15.572,9.467l0.009,0.026c2.354,0.025,5.123-0.099,7.72-0.385c0.451-0.047,0.863-0.09,1.303-0.174
	c1.823-0.229,3.568-0.598,5.01-1.065c0.668,1.034,1.839,1.791,3,1.825l28.273,0.333c1.813,0,3.641-1.816,3.66-3.621l0.027-2.213
	c0.024-1.805-1.769-3.641-3.606-3.676l-2.866-0.033l0.291-26.051c0.008-0.508,0.008-1.05,0.008-1.557
	c0.008-0.19,0.008-0.358-0.008-0.565c0.477,0.707,1.005,1.339,1.596,1.92c2.463,2.438,5.905,3.862,9.897,3.885h-0.014l0.014,0.007
	c0.901,0,1.758-0.031,2.588-0.19c-0.402,1.637-0.589,3.288-0.609,4.933l0,0c-0.074,3.97,0.784,7.803,2.379,11.338
	c0.288,0.607,0.541,1.164,0.85,1.705c1.539,2.846,3.607,5.431,6.078,7.57l0.037,0.026c0.828,0.73,1.762,1.378,2.736,2.013
	c0.932,0.571,1.938,1.113,2.978,1.606c5.115,2.37,11.101,3.301,16.833,3.345v0.023c3.953,0.044,8.038-0.335,11.898-1.3
	c0.639-0.149,1.298-0.332,1.894-0.503c3.286-1.058,6.35-2.563,8.961-4.693h-0.008c0.822-0.667,1.605-1.421,2.396-2.256
	c0.769-0.804,1.46-1.64,2.123-2.503c3.314-4.456,5.188-9.922,5.246-15.645h0.024c0.017-3.909-1.031-7.903-2.895-11.47
	c-0.319-0.601-0.634-1.167-0.948-1.672c-1.763-2.863-4.051-5.366-6.663-7.229l-0.033-0.016c-0.528-0.391-1.117-0.774-1.746-1.14
	c1.253-1.431,1.438-3.835-0.183-5.216l-11.579-9.905c-0.327-0.276-1.892-0.874-2.312-0.883l-11.983-0.124
	c-0.472-0.019-2.102,0.615-2.457,0.955l-10.681,9.61c-0.825,0.73-1.182,1.72-1.144,2.668c-0.833-2.321-2.303-4.251-4.178-5.766
	c-2.833-2.271-6.578-3.483-10.392-3.511v0.019l0.007-0.019c-3.171-0.049-6.105,0.619-8.764,1.849
	c-0.651,0.316-1.285,0.648-1.885,1.005c-0.232,0.159-0.49,0.309-0.742,0.492v-0.026c0.018-1.878-1.822-3.717-3.705-3.693
	c-4.41,0.108-7.496,0.6-10.491,1.098c-2.994,0.483-5.907,0.983-10.247,0.916c-0.891,0-1.804,0.441-2.503,1.124l-2.3-0.043
	l0.169-12.542c0.014-1.813-1.771-3.645-3.61-3.662l-1.747-0.032c-0.822,0-2.578,0.931-3.047,1.587
	c-0.048,0.075-0.093,0.158-0.204,0.351c-4.387,8.716-13.209,14.306-25.249,14.871c-7.127-2.245-30.727-6.229-40.765,9.218
	c-4.492-11.571-42.605-11.577-54.068-5.374c-2.329,1.448-3.776,3.095-4.623,4.758c-1.067-1.329-2.338-2.694-3.829-4.102
	c-1.175-1.113-1.945-1.187-0.233-1.154v-0.026c1.822,0.051,3.504-0.274,5.091-0.907c1.581-0.649,3.02-1.623,4.299-2.901l0.011,0.008
	c1.802-1.805,3.013-3.903,3.641-6.307c0.125-0.465,0.208-0.938,0.286-1.422c0.265-1.747,0.165-3.646-0.333-5.35
	c-0.327-1.195-0.833-2.36-1.539-3.451c-1.313-2.163-3.136-3.876-5.416-5.164c-0.958-0.526-1.96-0.974-2.986-1.284
	c-0.241-0.09-0.456-0.13-0.615-0.19l0,0C61.122,0.173,59.858,0.016,58.571,0l-0.01,0.016c-0.023,0-0.274-0.016-0.301,0
	c-2.977,0.172-5.664,0.974-8.083,2.427c-0.475,0.292-0.933,0.617-1.374,0.94c-0.458,0.334-0.865,0.7-1.274,1.048
	c-0.016,0-0.023,0,0,0.026h-0.023c-2.188,1.997-3.659,4.624-4.391,7.803c-0.141,0.607-0.251,1.223-0.316,1.804
	c-0.108,0.69-0.143,1.313-0.177,1.928v0.026v0.159c-0.032,1.098,0.069,2.18,0.242,3.27c0.125,0.698,0.275,1.354,0.466,2.05
	c0.059,0.011,0.106,0.011,0,0l0,0l0,0c-0.167-0.029-0.175-0.029-0.157-0.029c-1.057-0.219-2.113-0.399-3.228-0.542
	c-1.199-0.132-2.346-0.181-3.451-0.215c-3.196-0.04-6.481,0.358-9.75,1.181c-0.657,0.167-1.28,0.334-1.887,0.508
	c-0.566,0.158-1.206,0.392-1.872,0.63l-0.01-0.015v0.015c-3.336,1.183-6.291,2.796-8.86,4.877c-0.522,0.398-1.023,0.837-1.461,1.254
	c-0.542,0.516-1.006,0.966-1.356,1.35V30.5c-1.665,1.781-2.934,3.736-3.816,5.891c-0.91,2.137-1.374,4.425-1.424,6.861L6.04,43.3
	c-0.041,2.771,0.424,5.275,1.381,7.562c0.176,0.374,0.358,0.813,0.64,1.315c0.201,0.433,0.458,0.83,0.725,1.24H8.774l0.011,0.013
	h0.014c1.177,1.807,2.416,3.33,3.763,4.566c-0.234,0.151-0.477,0.318-0.701,0.443c-0.432,0.265-0.938,0.607-1.521,0.997
	c-0.565,0.384-1.089,0.741-1.555,1.075H8.768h0.007c-2.318,1.661-4.091,3.742-5.288,6.252c-1.148,2.434-1.73,5.174-1.788,8.252
	c-0.024,3.047,0.475,5.792,1.471,8.269c1.041,2.538,2.623,4.718,4.709,6.506l0.016,0.008c0.698,0.625,1.39,1.186,2.082,1.731
	c-0.743,0.331-1.515,0.682-2.306,1.089H7.635c-2.05,1.066-3.725,2.444-4.987,4.193h-0.02c-0.206,0.291-0.451,0.648-0.674,1.08
	c-1.27,2.179-1.938,4.708-1.953,7.628l0,0c-0.025,2.455,0.433,4.757,1.406,6.912c0.951,2.129,2.345,4.067,4.184,5.778l0.018-0.007
	c1.679,1.581,3.644,2.988,5.837,4.177c2.155,1.189,4.51,2.163,7.046,2.926c2.507,0.802,5.051,1.367,7.588,1.782
	c2.579,0.408,5.157,0.601,7.709,0.64c3.445,0.035,6.78-0.208,10.059-0.757c3.258-0.53,6.445-1.38,9.55-2.521
	c4.572-1.677,8.539-4.032,11.917-7.06c0.593-0.566,1.207-1.157,1.882-1.881c0.615-0.674,1.206-1.322,1.755-2.013h-0.027
	c2.09-2.546,3.654-5.372,4.719-8.542c1.037-3.109,1.571-6.451,1.612-10.029c0.042-2.821-0.223-5.485-0.763-7.98
	c-0.477-2.188-1.18-4.225-2.106-6.148c1.723,0.326,3.487,0.517,5.234,0.551c3.891,0.039,7.857-0.327,11.638-1.425
	c2.527-0.763,4.964-1.868,7.16-3.419c1.274,1.482,2.754,2.59,4.417,3.386C103.538,81.225,106.59,81.672,109.934,81.713z"/>
<path fill-rule="evenodd" clip-rule="evenodd" fill="#FFFFFF" d="M96.542,61.95c-0.066,3.71,0.183,10.043-5.365,9.973
	c-4.01-0.03-3.745-5.456-3.718-8.366c0.074-4.6-0.667-11.74,5.571-11.671l3.594,0.042L96.542,61.95z M268.459,40.815
	c0.037-3.236,0.351-7.004,4.674-6.945c4.323,0.073,4.28,3.816,4.247,7.037l-0.321,27.547c-0.056,3.696,0.65,7.189-4.391,7.147
	c-4.69-0.059-4.574-3.569-4.505-7.221L268.459,40.815z M273.168,31.666c-7.005-0.076-14.146,1.429-19.473,5.03
	c-5.421,3.702-9.291,10.557-9.364,17.16c-0.087,6.89,2.884,13.347,8.059,17.816c5.2,4.461,12.893,6.059,20.238,6.14
	c7.362,0.077,15.107-1.319,20.411-5.662c5.266-4.377,8.358-10.754,8.429-17.637c0.099-6.627-3.585-13.564-8.984-17.383
	C287.29,33.411,280.138,31.73,273.168,31.666z M272.555,25.825l-5.583,4.441l-10.92-0.132l10.701-9.607l11.989,0.132l11.562,9.885
	l-12.296-0.134L272.555,25.825z M201.498,77.007l28.25,0.324l0.068-2.213l-6.558-0.066l0.329-29.679
	c0.057-3.776-0.136-7.079,1.14-10.674c0.322-0.888,3.098-6.104,4.476-3.8c-0.426,1.365-0.599,2.945-0.616,4.334
	c-0.07,6.147,4.108,10.14,10.17,10.207c6.326,0.076,10.805-4.292,10.875-10.622c0.08-6.604-5.667-10.264-11.733-10.332
	c-6.52-0.075-11.809,3.335-14.887,8.925l-0.207-0.007l0.113-9.271c-8.805,0.18-12.001,2.092-20.827,2
	C202.041,30.359,201.548,72.764,201.498,77.007z M192.083,10.969c-5.886,9.324-14.973,16.021-26.367,15.886l-0.032,2.215l5.42,0.049
	l-0.364,32.448c-0.126,11.938,2.578,15.105,13.71,15.238c4.439,0.058,10.495-0.415,13.605-1.703l-0.122-3.661
	c-2.749-0.058-4.787,1.672-4.72-6.697l0.42-35.383l6.612,0.106l0.033-2.221l-6.64-0.073l0.199-16.165L192.083,10.969z
	 M43.115,92.843L20.34,92.579c-4.617,3.154-6.937,7.196-7.004,12.111c-0.06,6.08,1.822,10.561,5.715,13.478
	c3.89,2.894,8.832,4.355,14.782,4.438c4.301,0.052,8.359-0.408,12.153-1.362c3.8-0.957,6.978-2.611,9.473-5.064
	c2.528-2.425,3.819-5.663,3.84-9.718c-0.031-3.551-1.18-6.287-3.408-8.301c-2.221-2.013-4.635-3.393-7.145-4.16
	C46.19,93.228,44.328,92.857,43.115,92.843z M43.208,42.978c0.048-5.299-0.254-9.284-0.927-11.944
	c-0.639-2.647-1.452-4.343-2.386-5.075c-0.947-0.765-2.003-1.124-3.21-1.141c-2.562-0.017-4.301,1.082-5.208,3.395
	c-0.9,2.271-1.354,5.39-1.397,9.383c-0.015,0.73-0.036,1.794,0,3.16c0.043,1.379,0.026,2.404,0.008,3.078
	c-0.066,5.199,0.326,9.441,1.134,12.751c0.804,3.336,2.677,4.991,5.662,5.025c2.545-0.116,4.201-1.331,5.014-3.685
	c0.793-2.386,1.2-5.598,1.258-9.706L43.208,42.978z M46.25,16.21c0.175-3.951,1.4-6.986,3.727-9.076
	c2.263-2.12,5.141-3.285,8.535-3.511c2.022,0.009,3.944,0.518,5.683,1.513c1.763,0.982,3.135,2.29,4.124,3.927
	c1.014,1.599,1.515,3.345,1.483,5.177c-0.159,2.686-1.161,4.99-3.014,6.852c-1.878,1.88-4.142,2.77-6.795,2.745
	c-2.722-0.008-5.093-1.031-7.093-2.97c-2.04-2.013-3.031-4.358-3.006-7.086c0.009-1.106,0.34-2.356,0.984-3.735
	c0.671-1.458,1.164-2.521,1.595-3.27c-0.847,0.475-1.938,1.489-3.295,2.987c-1.298,1.546-2.044,3.71-2.187,6.464
	c-0.023,2.735,0.641,4.965,1.964,6.703c1.338,1.706,3.494,3.81,6.44,6.307c2.934,2.47,5.14,4.765,6.595,6.903
	c1.471,2.122,2.179,4.856,2.139,8.184c-0.069,3.958-1.517,7.394-4.403,10.324c-2.9,2.869-6.429,5.09-10.696,6.553
	c-4.26,1.448-8.301,2.18-12.178,2.139c-3.566-0.042-6.995-0.632-10.221-1.713c-3.271-1.114-5.299-1.979-6.167-2.545
	c-1.829,0.84-3.142,1.538-3.94,2.138c-0.799,0.581-1.216,1.464-1.254,2.647c-0.011,4.048,3.691,6.119,11.146,6.212
	c1.688,0.008,4.307-0.094,7.883-0.262c3.595-0.23,6.113-0.305,7.601-0.296c6.957,0.066,12.697,1.182,17.147,3.276
	c4.433,2.131,7.685,5.058,9.679,8.784c1.99,3.726,2.963,8.168,2.907,13.292c-0.076,6.487-1.905,11.915-5.509,16.347
	c-3.583,4.433-8.232,7.718-13.99,9.841c-5.746,2.104-11.837,3.108-18.29,3.018c-4.85-0.033-9.602-0.765-14.258-2.219
	c-4.682-1.431-8.518-3.52-11.522-6.315c-2.995-2.784-4.473-6.104-4.425-9.987c0.05-4.561,1.929-7.799,5.64-9.695
	c3.744-1.871,6.838-2.961,9.309-3.328c-2.223-0.819-5.008-2.661-8.345-5.504c-3.326-2.829-4.964-6.822-4.891-11.971
	c0.061-5.125,1.889-8.983,5.516-11.595c3.645-2.571,6.661-4.225,9.091-4.925c-0.441-0.017-1.547-0.639-3.292-1.863
	c-1.762-1.222-3.36-2.986-4.843-5.223c-1.464-2.238-2.17-4.941-2.146-8.119c0.125-3.983,1.524-7.419,4.252-10.347
	c2.728-2.903,6.147-5.066,10.247-6.539c4.117-1.456,8.21-2.153,12.261-2.113c2.082,0.024,4.117,0.258,6.156,0.726
	c2.029,0.423,3.86,0.956,5.514,1.538c1.666,0.576,2.462,0.864,2.378,0.864c-0.148,0-0.59-0.539-1.319-1.697
	c-0.735-1.161-1.426-2.594-2.047-4.298C46.533,19.753,46.233,17.989,46.25,16.21z M157.455,28.246
	c-1.844-0.822-4.151-1.233-6.929-1.271c-2.82-0.018-5.338,0.589-7.643,1.861c-2.266,1.29-3.413,2.981-3.444,5.108
	c0.048,1.932,0.796,3.528,2.288,4.883c1.504,1.34,3.353,2.487,5.581,3.443c2.222,0.965,4.31,1.846,6.197,2.613
	c3.268,1.504,5.956,2.952,8.027,4.333c2.087,1.38,3.768,3.105,5.082,5.099c1.292,2.031,1.939,4.408,1.978,7.172
	c-0.03,2.91-0.756,5.48-2.238,7.752c-1.482,2.277-3.458,4.208-5.979,5.738c-2.527,1.539-5.338,2.676-8.424,3.468
	c-3.103,0.724-6.256,1.098-9.469,1.053c-3.359-0.129-6.604-0.585-9.722-1.394c-3.112-0.813-5.654-2.056-7.702-3.751
	c-9.101-7.553,4.599-20.894,13.824-12.626c3.881,3.561,3.743,9.774-1.605,12.02c-1.207,0.799-0.958,2.153,1.538,2.095
	c10.064-0.256,16.247-6.37,7.518-12.897c-2.628-1.956-5.994-3.763-10.139-5.376c-8.458-3.345-12.66-8.278-12.603-14.817
	c0.068-3.473,1.225-6.461,3.538-9.014c2.328-2.544,5.33-4.484,9.146-5.814c3.777-1.289,7.778-1.93,12.024-1.854
	c4.666,0.024,8.657,0.83,12.016,2.344c3.347,1.556,5.092,3.869,5.233,7.003c-0.016,1.997-0.806,3.776-2.342,5.301
	c-1.554,1.487-3.448,2.251-5.694,2.22c-2.335-0.05-4.375-0.831-6.056-2.354c-1.639-1.54-2.469-3.402-2.436-5.556
	c0.114-1.931,0.987-3.578,2.643-4.867C153.346,28.863,155.241,28.213,157.455,28.246z M96.659,49.516l-4.918-0.033
	c-4.515-0.068-7.417,0.092-11.854,0.657c-14.046,1.73-17.625,8.518-17.715,15.129c-0.083,8.942,7.885,12.336,15.504,12.437
	c7.114,0.08,14.475-1.238,19.54-6.723c2.545,5.674,7.038,7.022,12.761,7.098c3.334,0.022,6.629-0.624,9.781-2.049l0.459-34.368
	c0.106-7.503-4.111-10.432-10.672-12.044c-4.824-1.217-13.037-2.064-18.045-2.13c-22.474-0.256-25.061,6.246-25.103,10.663
	c-0.065,5.906,6.006,7.984,10.939,8.035c5.306,0.059,13.35-0.957,13.427-7.868c0.048-4.509-3.653-5.765-3.622-7.08
	c0.009-0.882,2.222-1.074,4.01-1.046c4.616,0.057,5.708,1.67,5.656,6.179L96.659,49.516z"/>
<g>
	<path fill="#9D2A2A" d="M204.249,89.405c1.957,0,3.689,0.424,5.197,1.272c1.507,0.848,2.688,2.102,3.544,3.762
		c0.855,1.66,1.283,3.381,1.283,5.164c0,3.161-0.917,6.477-2.75,9.948c-1.834,3.472-4.229,6.121-7.187,7.948
		c-2.957,1.826-6.016,2.739-9.176,2.739c-2.276,0-4.179-0.504-5.708-1.511c-1.529-1.008-2.66-2.338-3.392-3.99
		c-0.732-1.652-1.098-3.254-1.098-4.805c0-2.754,0.663-5.476,1.989-8.165c1.327-2.688,2.91-4.936,4.751-6.74
		s3.805-3.193,5.893-4.164S201.901,89.405,204.249,89.405z M203.51,90.797c-1.45,0-2.867,0.359-4.251,1.077
		c-1.384,0.717-2.758,1.892-4.121,3.522c-1.362,1.631-2.587,3.765-3.674,6.403c-1.334,3.248-2,6.313-2,9.198
		c0,2.058,0.529,3.881,1.587,5.468c1.058,1.588,2.681,2.381,4.87,2.381c1.319,0,2.613-0.326,3.881-0.979s2.591-1.769,3.968-3.349
		c1.725-1.985,3.175-4.519,4.349-7.599c1.174-3.08,1.761-5.954,1.761-8.621c0-1.971-0.529-3.715-1.587-5.229
		C207.235,91.555,205.641,90.797,203.51,90.797z"/>
	<path fill="#9D2A2A" d="M221.625,99.886l-2.892,9.894c2.711-4.044,4.787-6.704,6.23-7.98c1.442-1.275,2.83-1.914,4.164-1.914
		c0.725,0,1.323,0.239,1.794,0.718c0.471,0.479,0.707,1.102,0.707,1.87c0,0.87-0.21,2.029-0.63,3.479l-2.653,9.154
		c-0.304,1.058-0.457,1.703-0.457,1.935c0,0.203,0.058,0.374,0.174,0.511c0.116,0.139,0.239,0.207,0.37,0.207
		c0.174,0,0.384-0.094,0.631-0.282c0.768-0.609,1.609-1.537,2.522-2.783l0.674,0.413c-1.348,1.928-2.624,3.305-3.827,4.131
		c-0.841,0.565-1.595,0.848-2.261,0.848c-0.537,0-0.964-0.163-1.283-0.489c-0.319-0.326-0.479-0.764-0.479-1.315
		c0-0.695,0.246-1.892,0.739-3.587l2.522-8.741c0.318-1.087,0.478-1.936,0.478-2.544c0-0.29-0.094-0.525-0.283-0.707
		c-0.188-0.181-0.42-0.272-0.696-0.272c-0.406,0-0.891,0.174-1.457,0.522c-1.073,0.652-2.189,1.729-3.349,3.229
		s-2.385,3.417-3.675,5.751c-0.681,1.232-1.247,2.58-1.696,4.044l-1.087,3.588h-3.261l3.957-13.611
		c0.464-1.638,0.696-2.624,0.696-2.958c0-0.318-0.127-0.598-0.38-0.837c-0.254-0.239-0.569-0.359-0.946-0.359
		c-0.174,0-0.479,0.029-0.913,0.087l-0.827,0.13l-0.13-0.783L221.625,99.886z"/>
	<path fill="#9D2A2A" d="M244.632,88.645l-7.436,25.875c-0.363,1.291-0.543,2.081-0.543,2.37c0,0.218,0.068,0.399,0.207,0.544
		c0.137,0.146,0.308,0.218,0.511,0.218c0.275,0,0.572-0.123,0.892-0.37c0.753-0.594,1.544-1.515,2.37-2.762l0.652,0.675
		c-1.377,1.942-2.646,3.298-3.805,4.065c-0.855,0.551-1.667,0.826-2.436,0.826c-0.551,0-1.011-0.188-1.38-0.565
		c-0.37-0.376-0.555-0.812-0.555-1.304c0-0.522,0.231-1.595,0.696-3.219l5.893-20.396c0.479-1.667,0.717-2.624,0.717-2.87
		c0-0.348-0.138-0.634-0.413-0.859c-0.275-0.225-0.703-0.337-1.283-0.337c-0.333,0-0.841,0.051-1.522,0.152v-0.805L244.632,88.645z"
		/>
	<path fill="#9D2A2A" d="M251.332,99.886l-4.305,15.243c-0.29,1.029-0.435,1.646-0.435,1.848c0,0.232,0.069,0.421,0.207,0.565
		c0.138,0.146,0.301,0.218,0.489,0.218c0.218,0,0.479-0.116,0.783-0.348c0.827-0.652,1.66-1.58,2.501-2.783l0.761,0.5
		c-0.986,1.508-2.146,2.776-3.479,3.805c-0.986,0.769-1.928,1.152-2.827,1.152c-0.595,0-1.08-0.178-1.457-0.532
		c-0.377-0.355-0.565-0.801-0.565-1.337s0.181-1.428,0.543-2.675l2.827-9.741c0.464-1.595,0.696-2.595,0.696-3
		c0-0.319-0.112-0.58-0.337-0.783c-0.225-0.203-0.533-0.304-0.924-0.304c-0.319,0-0.979,0.08-1.979,0.239v-0.848L251.332,99.886z
		 M251.049,91.253c0.609,0,1.124,0.21,1.544,0.631s0.63,0.935,0.63,1.544c0,0.594-0.214,1.105-0.641,1.533
		c-0.428,0.428-0.939,0.642-1.533,0.642s-1.105-0.214-1.533-0.642c-0.428-0.427-0.642-0.938-0.642-1.533
		c0-0.609,0.21-1.124,0.631-1.544C249.926,91.464,250.44,91.253,251.049,91.253z"/>
	<path fill="#9D2A2A" d="M260.619,99.886l-2.892,9.894c2.711-4.044,4.787-6.704,6.23-7.98c1.442-1.275,2.83-1.914,4.164-1.914
		c0.725,0,1.323,0.239,1.794,0.718c0.471,0.479,0.707,1.102,0.707,1.87c0,0.87-0.21,2.029-0.63,3.479l-2.653,9.154
		c-0.304,1.058-0.457,1.703-0.457,1.935c0,0.203,0.058,0.374,0.174,0.511c0.116,0.139,0.239,0.207,0.37,0.207
		c0.174,0,0.384-0.094,0.631-0.282c0.768-0.609,1.609-1.537,2.522-2.783l0.674,0.413c-1.348,1.928-2.624,3.305-3.827,4.131
		c-0.841,0.565-1.595,0.848-2.261,0.848c-0.537,0-0.964-0.163-1.283-0.489c-0.319-0.326-0.479-0.764-0.479-1.315
		c0-0.695,0.246-1.892,0.739-3.587l2.522-8.741c0.318-1.087,0.478-1.936,0.478-2.544c0-0.29-0.094-0.525-0.283-0.707
		c-0.188-0.181-0.42-0.272-0.696-0.272c-0.406,0-0.891,0.174-1.457,0.522c-1.073,0.652-2.189,1.729-3.349,3.229
		s-2.385,3.417-3.675,5.751c-0.681,1.232-1.247,2.58-1.696,4.044l-1.087,3.588h-3.261l3.957-13.611
		c0.464-1.638,0.696-2.624,0.696-2.958c0-0.318-0.127-0.598-0.38-0.837c-0.254-0.239-0.569-0.359-0.946-0.359
		c-0.174,0-0.479,0.029-0.913,0.087l-0.827,0.13l-0.13-0.783L260.619,99.886z"/>
	<path fill="#9D2A2A" d="M275.69,111.367c-0.102,0.725-0.152,1.326-0.152,1.805c0,1.29,0.457,2.389,1.37,3.294
		c0.914,0.906,2.022,1.359,3.327,1.359c1.043,0,2.047-0.214,3.011-0.642c0.964-0.428,2.396-1.373,4.294-2.838l0.457,0.631
		c-3.436,3.406-6.711,5.109-9.828,5.109c-2.117,0-3.711-0.666-4.784-2s-1.609-2.805-1.609-4.414c0-2.16,0.667-4.371,2-6.632
		c1.333-2.261,3.008-4.019,5.023-5.273c2.015-1.253,4.087-1.881,6.218-1.881c1.537,0,2.675,0.312,3.414,0.935
		c0.739,0.624,1.109,1.363,1.109,2.218c0,1.204-0.479,2.356-1.435,3.458c-1.261,1.435-3.117,2.595-5.566,3.479
		C280.916,110.569,278.633,111.033,275.69,111.367z M275.842,110.301c2.146-0.247,3.892-0.667,5.24-1.261
		c1.783-0.797,3.121-1.75,4.012-2.859c0.892-1.109,1.337-2.164,1.337-3.164c0-0.609-0.192-1.102-0.576-1.479
		c-0.384-0.377-0.932-0.565-1.642-0.565c-1.479,0-3.048,0.787-4.708,2.359C277.846,104.905,276.625,107.228,275.842,110.301z"/>
</g>
</svg>
